<svg width="322" height="305" viewBox="0 0 322 305" fill="none" xmlns="http://www.w3.org/2000/svg">
<g clip-path="url(#clip0)">
<path d="M292.805 135.58C308.602 135.58 321.58 122.602 321.58 106.805C321.58 90.9782 308.602 78 292.775 78C276.978 78 264 90.9782 264 106.805C264 122.602 276.978 135.58 292.805 135.58ZM283.409 101.373C283.409 99.9926 282.645 98.7593 281.529 98.084C284.143 91.2425 288.283 85.0764 293.656 80.0554C294.977 80.0847 296.269 80.2315 297.532 80.4665C293.421 87.1611 290.896 94.7954 290.309 102.958C287.931 102.635 285.64 102.107 283.409 101.402V101.373ZM279.562 97.5261C278.476 97.5261 277.448 97.9959 276.743 98.7593C274.101 97.438 271.576 95.8818 269.256 94.0907C273.484 86.2802 281.5 80.7895 290.837 80.1141C285.934 85.0764 282.146 91.037 279.709 97.5554C279.68 97.5261 279.621 97.5261 279.562 97.5261ZM298.56 94.2669C298.677 96.8214 299.059 99.3172 299.705 101.696C299.176 102.136 298.765 102.723 298.56 103.399C298.207 103.399 297.884 103.399 297.532 103.428C295.741 103.457 293.979 103.369 292.217 103.193C292.775 95.0596 295.389 87.4548 299.558 80.9069C299.881 80.995 300.204 81.0831 300.527 81.1711C299.059 85.2525 298.354 89.657 298.56 94.2669ZM301.966 100.903C301.819 100.903 301.672 100.903 301.525 100.932C300.967 98.7593 300.615 96.4984 300.498 94.1788C300.292 89.8625 300.938 85.6636 302.348 81.8172C309.688 84.636 315.502 90.5966 318.086 98.0546C314.063 100.257 309.659 101.813 305.049 102.665C304.432 101.607 303.258 100.903 301.966 100.903ZM266.026 106.805C266.026 102.929 266.848 99.2291 268.375 95.8818C270.695 97.6142 273.19 99.1704 275.804 100.462C275.745 100.756 275.716 101.05 275.716 101.373C275.716 102.782 276.479 104.045 277.624 104.72C276.89 108.185 276.508 111.767 276.508 115.408C272.838 113.646 269.315 111.415 266.085 108.684C266.055 108.067 266.026 107.421 266.026 106.805ZM319.554 106.805C319.554 109.712 319.084 112.53 318.203 115.173C316.236 116.142 314.181 116.964 312.125 117.639C308.749 114.85 305.959 111.356 303.962 107.392C304.873 106.775 305.489 105.748 305.519 104.573C310.187 103.692 314.621 102.136 318.673 99.9632C319.26 102.136 319.554 104.426 319.554 106.805ZM279.562 105.248C281.001 105.248 282.263 104.456 282.909 103.252C285.288 103.986 287.725 104.514 290.191 104.867C290.191 105.454 290.162 106.012 290.162 106.57C290.162 110.534 290.632 114.38 291.483 118.08C291.014 118.462 290.632 118.99 290.397 119.548C286.286 118.99 282.263 117.874 278.417 116.259C278.3 112.501 278.652 108.801 279.415 105.248C279.474 105.248 279.533 105.248 279.562 105.248ZM301.966 108.038H302.113C304.051 111.943 306.723 115.408 309.952 118.285C305.9 119.401 301.76 119.988 297.591 120.018C297.15 118.403 295.712 117.228 293.92 117.228C293.715 117.228 293.509 117.258 293.304 117.287C292.511 113.822 292.1 110.24 292.1 106.57C292.1 106.1 292.1 105.601 292.129 105.102C293.92 105.278 295.741 105.366 297.561 105.337C297.884 105.337 298.178 105.337 298.501 105.337C298.883 106.893 300.292 108.038 301.966 108.038ZM277.301 124.04C277.507 125.832 277.888 127.593 278.388 129.326C272.222 125.362 267.758 118.931 266.437 111.473C269.608 113.94 273.014 115.966 276.567 117.551C276.685 119.695 276.92 121.868 277.301 124.04ZM313.975 119.078C315.061 118.697 316.119 118.285 317.176 117.816C316.794 118.667 316.353 119.519 315.854 120.341C315.208 119.93 314.592 119.519 313.975 119.078ZM292.805 133.554C288.518 133.554 284.466 132.556 280.883 130.765C280.061 128.504 279.533 126.184 279.21 123.776C278.857 121.985 278.623 120.165 278.505 118.374C282.263 119.871 286.169 120.899 290.133 121.457C290.338 123.277 291.748 124.686 293.597 124.833C294.713 127.711 296.123 130.5 297.767 133.114C296.152 133.407 294.478 133.554 292.805 133.554ZM295.535 124.481C296.563 124.011 297.327 123.101 297.62 121.956C302.377 121.926 307.163 121.192 311.773 119.812C312.742 120.576 313.77 121.28 314.856 121.926C311.274 127.094 305.959 130.97 299.764 132.644C298.119 130.06 296.71 127.329 295.535 124.481Z" fill="black"/>
<path d="M90.4256 40.8119L90.2587 41.381L90.6443 41.7666C94.1068 46.0428 95.3563 50.4528 95.6372 53.5516C95.7152 54.413 95.7171 55.1583 95.6756 55.7607C93.6107 52.9174 90.7756 51.8734 88.2632 51.6444C86.815 51.5123 85.4706 51.648 84.4234 51.8519C83.4083 52.0497 82.5819 52.33 82.197 52.5469C81.7122 52.8201 81.1241 53.1389 80.6541 53.391C80.4197 53.5167 80.216 53.6252 80.071 53.7021L79.9011 53.7921L79.8558 53.816L79.8443 53.8221L79.8414 53.8236L79.8407 53.824L79.8406 53.8241L79.8405 53.8241L79.8373 53.8258C72.7104 57.6129 63.0456 57.9375 53.2308 53.7193C46.7196 50.9203 41.1246 46.5408 36.898 41.356C37.8909 41.9201 38.91 42.4483 39.9533 42.9375L39.9537 42.9376C50.8056 48.0203 61.831 47.7079 69.7197 42.8802L70.9601 42.1211L69.8073 41.2345C59.9787 33.6763 51.6322 23.9877 45.0017 15.6873C48.3852 18.3683 52.1356 21.1842 55.4339 23.5989C58.3123 25.7063 60.86 27.518 62.5403 28.6818C63.3759 29.2606 64.0108 29.6888 64.3659 29.9124C64.4542 29.9681 64.538 30.0191 64.6086 30.0585C64.6416 30.0769 64.6903 30.1032 64.7444 30.1273C64.7697 30.1386 64.8189 30.1598 64.8812 30.1785C64.8817 30.1786 64.8825 30.1789 64.8835 30.1792C64.9098 30.1876 65.1139 30.2525 65.3654 30.2048C65.5273 30.1741 65.816 30.074 66.0152 29.7732C66.2096 29.4795 66.192 29.1849 66.1657 29.0397C66.1229 28.804 66.0032 28.6445 65.9856 28.621C65.9849 28.6201 65.9843 28.6193 65.984 28.6188C65.9222 28.5343 65.8555 28.471 65.8341 28.4506L65.8331 28.4497C65.7716 28.3911 65.6936 28.3253 65.6151 28.2614C65.391 28.0785 64.9288 27.5957 64.2461 26.8129C63.5836 26.0533 62.7622 25.0684 61.839 23.9352C59.9934 21.6699 57.7586 18.8331 55.6082 16.0661C55.3862 15.7805 55.1652 15.4958 54.9457 15.2125C59.4453 19.2063 63.5906 22.5199 67.0025 25.0943C69.7906 27.1981 72.0905 28.8095 73.6957 29.8965C74.4983 30.44 75.1274 30.8524 75.5571 31.1298C75.772 31.2685 75.9371 31.3734 76.0491 31.4441C76.1051 31.4795 76.1478 31.5062 76.1769 31.5244L76.2102 31.5451L76.2191 31.5507L76.2216 31.5522L76.2224 31.5527C76.2226 31.5528 76.2228 31.5529 76.7481 30.702L76.2228 31.5529L76.244 31.566L76.2658 31.578C76.7948 31.8693 77.1742 32.0952 77.4659 32.2863L78.4977 32.9623L78.9456 31.8129C79.2508 31.0297 79.53 30.2166 79.7628 29.3653C81.9506 21.3684 80.2005 12.4839 75.7108 4.63468C87.3607 13.5788 93.7157 27.8224 90.6866 39.8912C90.6245 40.1378 90.5541 40.3762 90.4773 40.6364C90.4604 40.6938 90.4431 40.7521 90.4256 40.8119ZM90.6781 41.8004C90.6793 41.8016 90.6784 41.8007 90.6761 41.7984L90.6781 41.8004Z" stroke="black" stroke-width="2"/>
<path fill-rule="evenodd" clip-rule="evenodd" d="M127.729 258.374C127.729 264.628 123.413 269.415 117.805 269.415C112.167 269.385 107.88 264.628 107.851 258.374C107.821 252.502 112.255 247.569 117.805 247.569C123.325 247.569 127.729 252.502 127.729 258.374Z" fill="black"/>
<path fill-rule="evenodd" clip-rule="evenodd" d="M117.805 293.58C133.602 293.58 146.58 280.602 146.58 264.805C146.58 248.978 133.602 236 117.775 236C101.978 236 89 248.978 89 264.805C89 280.602 101.978 293.58 117.805 293.58ZM98.3667 282.892C100.716 279.016 107.998 274.494 117.805 274.494C127.612 274.494 134.864 279.016 137.184 282.921C141.647 278.194 144.348 271.822 144.348 264.805C144.348 250.153 132.457 238.232 117.775 238.232C103.123 238.232 91.2316 250.153 91.2316 264.805C91.2316 271.793 93.9623 278.165 98.3667 282.892Z" fill="black"/>
<mask id="path-4-inside-1" fill="white">
<path d="M165.821 61.9695C184.302 44.0255 206.071 37.7198 233.071 47.52C246.854 52.5254 259.139 66.1432 263.863 78.5898C263.863 78.5898 285.955 54.7998 316.757 74.9404C316.757 74.9404 302.051 11.2014 240.076 10.0103C211.998 9.46033 185.186 28.867 161.502 56.3529L165.821 61.9695"/>
</mask>
<path d="M233.071 47.52L233.753 45.64L233.753 45.6401L233.071 47.52ZM263.863 78.5898L265.329 79.9508L263.136 82.3116L261.993 79.2995L263.863 78.5898ZM316.757 74.9404L318.705 74.4908L319.823 79.3351L315.662 76.6143L316.757 74.9404ZM240.076 10.0103L240.037 12.0099L240.036 12.0099L240.076 10.0103ZM161.502 56.3529L159.917 57.5721L158.924 56.2811L159.987 55.0473L161.502 56.3529ZM164.428 60.5346C173.868 51.3694 184.241 45.0873 195.797 42.3929C207.362 39.6966 219.951 40.6303 233.753 45.64L232.388 49.4C219.191 44.6095 207.396 43.7959 196.706 46.2884C186.007 48.7828 176.256 54.6255 167.215 63.4044L164.428 60.5346ZM233.753 45.6401C248.153 50.869 260.83 64.9613 265.733 77.8802L261.993 79.2995C257.449 67.3251 245.556 54.1817 232.388 49.3999L233.753 45.6401ZM263.863 78.5898C262.398 77.2289 262.398 77.228 262.399 77.227C262.4 77.2266 262.401 77.2255 262.402 77.2246C262.403 77.2228 262.405 77.2207 262.408 77.2181C262.412 77.2131 262.418 77.2067 262.426 77.1988C262.441 77.1831 262.461 77.1618 262.487 77.1352C262.538 77.0819 262.611 77.0073 262.705 76.9134C262.892 76.7256 263.165 76.4606 263.518 76.1352C264.225 75.4846 265.26 74.5904 266.596 73.5877C269.263 71.5857 273.159 69.1321 278.072 67.3342C287.98 63.7087 301.872 62.8181 317.851 73.2665L315.662 76.6143C300.84 66.9222 288.285 67.8563 279.447 71.0906C274.987 72.7226 271.434 74.9578 268.997 76.787C267.78 77.7 266.848 78.507 266.227 79.0787C265.916 79.3645 265.684 79.5909 265.533 79.7418C265.457 79.8172 265.402 79.8737 265.368 79.9093C265.351 79.927 265.339 79.9395 265.333 79.9465C265.329 79.95 265.327 79.9522 265.327 79.9529C265.326 79.9533 265.326 79.9533 265.327 79.9529C265.327 79.9527 265.327 79.9522 265.327 79.9521C265.328 79.9515 265.329 79.9508 263.863 78.5898ZM316.757 74.9404C314.808 75.39 314.808 75.3907 314.808 75.3911C314.808 75.3909 314.808 75.391 314.808 75.3906C314.808 75.3899 314.807 75.3881 314.807 75.3855C314.805 75.3801 314.803 75.3709 314.8 75.358C314.794 75.3321 314.784 75.2913 314.771 75.2359C314.743 75.1251 314.701 74.9561 314.642 74.7329C314.525 74.2865 314.343 73.6231 314.088 72.7736C313.578 71.074 312.779 68.6318 311.628 65.6918C309.324 59.8062 305.62 51.9557 300.026 44.0801C288.859 28.3576 270.221 12.59 240.037 12.0099L240.114 8.01068C271.906 8.62167 291.608 25.3192 303.287 41.7639C309.117 49.972 312.963 58.1307 315.353 64.2334C316.549 67.2875 317.383 69.8342 317.919 71.625C318.188 72.5207 318.382 73.2279 318.511 73.7157C318.575 73.9596 318.622 74.1487 318.654 74.2792C318.671 74.3444 318.683 74.395 318.691 74.4304C318.695 74.4481 318.699 74.4621 318.701 74.4721C318.702 74.4772 318.703 74.4813 318.704 74.4844C318.704 74.4859 318.705 74.4875 318.705 74.4883C318.705 74.4897 318.705 74.4908 316.757 74.9404ZM240.036 12.0099C212.9 11.4784 186.615 30.2722 163.017 57.6584L159.987 55.0473C183.757 27.4619 211.097 7.44229 240.115 8.0107L240.036 12.0099ZM163.087 55.1336L167.407 60.7502L164.236 63.1887L159.917 57.5721L163.087 55.1336Z" fill="black" mask="url(#path-4-inside-1)"/>
<mask id="path-6-inside-2" fill="white">
<path d="M146.013 76.0291C132.453 94.7458 120.229 115.485 109.762 135.571C96.3312 161.313 73.8126 215.319 82.2896 244.763C82.2896 244.763 93.2252 225.479 116.401 224.589C116.401 224.589 90.4529 195.065 136.51 104.349C140.994 95.5584 145.634 87.563 150.51 80.4323L146.013 76.0291"/>
</mask>
<path d="M109.762 135.571L111.536 136.495L111.535 136.496L109.762 135.571ZM82.2896 244.763L84.0293 245.749L81.6834 249.886L80.3676 245.316L82.2896 244.763ZM116.401 224.589L117.904 223.269L120.679 226.427L116.478 226.588L116.401 224.589ZM136.51 104.349L134.726 103.444L134.728 103.44L136.51 104.349ZM150.51 80.4323L151.909 79.0031L153.108 80.1766L152.161 81.5612L150.51 80.4323ZM147.632 77.2025C134.145 95.819 121.971 116.47 111.536 136.495L107.988 134.647C118.487 114.501 130.761 93.6727 144.393 74.8557L147.632 77.2025ZM111.535 136.496C104.862 149.286 95.9275 169.109 89.7226 189.364C83.483 209.734 80.1484 230.097 84.2115 244.209L80.3676 245.316C75.9537 229.985 79.64 208.623 85.8981 188.193C92.191 167.649 101.231 147.597 107.989 134.646L111.535 136.496ZM82.2896 244.763C80.5498 243.776 80.5503 243.775 80.5508 243.774C80.551 243.774 80.5516 243.773 80.5521 243.772C80.553 243.771 80.554 243.769 80.5553 243.767C80.5578 243.762 80.561 243.757 80.5648 243.75C80.5725 243.737 80.583 243.719 80.5961 243.696C80.6224 243.651 80.6596 243.589 80.7078 243.509C80.804 243.35 80.9441 243.125 81.1284 242.841C81.4969 242.275 82.0429 241.478 82.7692 240.524C84.2204 238.618 86.4011 236.076 89.3366 233.505C95.2107 228.36 104.159 223.058 116.325 222.591L116.478 226.588C105.467 227.011 97.36 231.795 91.9722 236.514C89.2768 238.875 87.275 241.21 85.9515 242.947C85.2905 243.815 84.8011 244.531 84.481 245.023C84.321 245.269 84.2035 245.459 84.1283 245.583C84.0907 245.645 84.0637 245.69 84.0472 245.719C84.0389 245.733 84.0333 245.742 84.0303 245.748C84.0288 245.75 84.028 245.752 84.0278 245.752C84.0277 245.752 84.0278 245.752 84.0281 245.751C84.0282 245.751 84.0285 245.751 84.0285 245.751C84.0289 245.75 84.0293 245.749 82.2896 244.763ZM116.401 224.589C114.899 225.91 114.898 225.908 114.896 225.906C114.895 225.905 114.893 225.903 114.892 225.901C114.889 225.898 114.886 225.894 114.882 225.89C114.875 225.882 114.866 225.871 114.856 225.859C114.835 225.835 114.809 225.803 114.777 225.764C114.713 225.685 114.627 225.576 114.521 225.436C114.311 225.155 114.023 224.748 113.684 224.209C113.004 223.129 112.117 221.519 111.216 219.316C109.411 214.907 107.56 208.151 107.186 198.566C106.439 179.404 111.596 149.002 134.726 103.444L138.293 105.254C115.366 150.413 110.47 180.13 111.183 198.41C111.539 207.545 113.296 213.84 114.918 217.801C115.729 219.784 116.509 221.189 117.069 222.078C117.349 222.523 117.574 222.84 117.721 223.036C117.795 223.134 117.849 223.201 117.88 223.24C117.896 223.259 117.906 223.271 117.91 223.276C117.912 223.278 117.912 223.279 117.911 223.278C117.911 223.277 117.91 223.276 117.909 223.275C117.908 223.274 117.907 223.273 117.906 223.272C117.905 223.271 117.904 223.269 116.401 224.589ZM134.728 103.44C139.242 94.5913 143.925 86.5193 148.859 79.3033L152.161 81.5612C147.343 88.6066 142.746 96.5255 138.291 105.258L134.728 103.44ZM149.111 81.8614L144.613 77.4582L147.412 74.5999L151.909 79.0031L149.111 81.8614Z" fill="black" mask="url(#path-6-inside-2)"/>
<path d="M158.744 272.788C157.077 282.428 151.567 293.964 136.576 302.374C136.659 302.394 136.745 302.414 136.832 302.434C138.582 302.845 141.125 303.374 144.278 303.845C150.588 304.787 159.325 305.495 169.042 304.559C188.46 302.688 211.754 294.269 227.507 268.046L227.507 268.046C241.621 244.554 238.463 212.348 226.654 178.467L221.548 179.144C224.518 191.361 224.669 202.93 221.402 213.76C218.037 224.916 211.069 235.208 199.971 244.573C188.945 253.897 171.626 257.871 158.393 256.235C158.596 257.141 158.843 258.43 159.038 260.018C159.434 263.256 159.614 267.753 158.744 272.788Z" stroke="black" stroke-width="2"/>
<mask id="path-9-inside-3" fill="white">
<path d="M217.979 154.115C208.548 133.045 196.648 112.087 184.443 92.997C168.816 68.5494 133.213 22.085 103.459 14.7887C103.459 14.7887 114.738 33.8715 103.944 54.4138C103.944 54.4138 142.475 46.6164 198.178 131.771C203.549 140.012 208.192 148.042 211.929 155.84L217.979 154.115"/>
</mask>
<path d="M184.443 92.997L182.758 94.0743L182.758 94.0742L184.443 92.997ZM103.459 14.7887L101.737 15.8063L99.3186 11.7141L103.935 12.8462L103.459 14.7887ZM103.944 54.4138L104.341 56.3741L100.217 57.2088L102.174 53.4836L103.944 54.4138ZM198.178 131.771L199.851 130.676L199.853 130.679L198.178 131.771ZM211.929 155.84L212.477 157.763L210.854 158.226L210.125 156.704L211.929 155.84ZM216.154 154.932C206.773 133.977 194.926 113.107 182.758 94.0743L186.128 91.9197C198.369 111.066 210.322 132.114 219.805 153.298L216.154 154.932ZM182.758 94.0742C174.993 81.9264 162.258 64.3014 147.788 48.8272C133.235 33.2656 117.243 20.228 102.983 16.7311L103.935 12.8462C119.429 16.6457 136.115 30.4884 150.709 46.0951C165.385 61.789 178.266 79.62 186.128 91.9199L182.758 94.0742ZM103.459 14.7887C105.181 13.7711 105.181 13.7719 105.182 13.7728C105.182 13.7732 105.183 13.7741 105.183 13.7749C105.184 13.7765 105.185 13.7784 105.186 13.7806C105.189 13.7849 105.192 13.7904 105.196 13.7971C105.204 13.8105 105.214 13.8285 105.227 13.851C105.253 13.8962 105.289 13.9597 105.334 14.041C105.423 14.2035 105.549 14.4374 105.703 14.7382C106.011 15.3397 106.43 16.2102 106.896 17.315C107.826 19.5222 108.944 22.679 109.71 26.5049C111.244 34.1609 111.38 44.5615 105.715 55.3441L102.174 53.4836C107.302 43.7239 107.195 34.3119 105.788 27.2909C105.084 23.7783 104.057 20.8805 103.209 18.8677C102.786 17.8625 102.409 17.0817 102.142 16.5593C102.008 16.2982 101.902 16.102 101.832 15.975C101.797 15.9115 101.771 15.8654 101.755 15.8371C101.747 15.8229 101.741 15.8132 101.738 15.8081C101.737 15.8055 101.736 15.8041 101.736 15.8038C101.736 15.8036 101.736 15.8038 101.736 15.8042C101.736 15.8044 101.736 15.8049 101.736 15.805C101.737 15.8056 101.737 15.8063 103.459 14.7887ZM103.944 54.4138C103.548 52.4536 103.55 52.4531 103.553 52.4526C103.554 52.4523 103.557 52.4518 103.559 52.4514C103.563 52.4505 103.568 52.4496 103.573 52.4485C103.584 52.4464 103.597 52.4439 103.613 52.4411C103.644 52.4354 103.685 52.4283 103.735 52.4201C103.835 52.4038 103.973 52.3834 104.147 52.362C104.496 52.3192 104.991 52.2724 105.628 52.2467C106.903 52.1953 108.741 52.2282 111.1 52.5437C115.823 53.1753 122.604 54.9358 131.101 59.3878C148.087 68.2877 171.877 87.9111 199.851 130.676L196.504 132.866C168.775 90.476 145.449 71.421 129.244 62.931C121.146 58.688 114.813 57.0758 110.57 56.5084C108.447 56.2244 106.84 56.2011 105.789 56.2435C105.264 56.2647 104.877 56.3023 104.634 56.3322C104.513 56.3471 104.427 56.36 104.378 56.368C104.354 56.372 104.338 56.3748 104.332 56.3759C104.329 56.3765 104.328 56.3767 104.33 56.3764C104.33 56.3762 104.332 56.376 104.334 56.3756C104.335 56.3754 104.336 56.375 104.337 56.3749C104.339 56.3745 104.341 56.3741 103.944 54.4138ZM199.853 130.679C205.26 138.974 209.949 147.081 213.732 154.975L210.125 156.704C206.434 149.004 201.838 141.05 196.502 132.863L199.853 130.679ZM211.381 153.916L217.431 152.192L218.528 156.039L212.477 157.763L211.381 153.916Z" fill="black" mask="url(#path-9-inside-3)"/>
<mask id="path-11-inside-4" fill="white">
<path d="M91.7883 166.876C67.0466 159.791 50.7268 144.056 45.7829 115.733C43.2657 101.293 48.9375 83.8602 57.4048 73.5745C57.4048 73.5745 25.7617 66.2525 27.8972 29.5131C27.8972 29.5131 -20.0561 74.0044 9.77843 128.357C23.2801 152.98 53.4381 166.569 89.0641 173.389L91.7883 166.876"/>
</mask>
<path d="M45.7829 115.733L43.8127 116.076L43.8126 116.076L45.7829 115.733ZM57.4048 73.5745L57.8557 71.626L61.0004 72.3537L58.9489 74.8457L57.4048 73.5745ZM27.8972 29.5131L26.5369 28.047L30.1824 24.6646L29.8938 29.6292L27.8972 29.5131ZM9.77843 128.357L11.5317 127.395L11.5321 127.396L9.77843 128.357ZM89.0641 173.389L90.9092 174.16L90.2827 175.658L88.6881 175.353L89.0641 173.389ZM91.2377 168.799C78.6002 165.18 67.9894 159.314 59.8983 150.632C51.8015 141.944 46.3399 130.555 43.8127 116.076L47.7531 115.389C50.1698 129.234 55.34 139.874 62.8245 147.905C70.3147 155.942 80.2347 161.487 92.3389 164.953L91.2377 168.799ZM43.8126 116.076C41.1832 100.993 47.0694 82.9827 55.8607 72.3034L58.9489 74.8457C50.8056 84.7377 45.3481 101.593 47.7532 115.389L43.8126 116.076ZM57.4048 73.5745C56.954 75.523 56.9528 75.5228 56.9515 75.5225C56.9509 75.5223 56.9494 75.522 56.9482 75.5217C56.9459 75.5212 56.943 75.5205 56.9396 75.5197C56.9329 75.5181 56.9243 75.5161 56.9138 75.5135C56.8928 75.5085 56.8642 75.5015 56.8283 75.4925C56.7566 75.4745 56.6556 75.4486 56.5274 75.4138C56.271 75.3444 55.9055 75.2401 55.447 75.0953C54.5304 74.8058 53.2395 74.3536 51.7043 73.6939C48.6388 72.3766 44.5703 70.219 40.5636 66.8523C32.484 60.0633 24.7927 48.4569 25.9005 29.397L29.8938 29.6292C28.8662 47.3087 35.9286 57.733 43.1368 63.7899C46.774 66.8461 50.4827 68.8153 53.2836 70.0189C54.6816 70.6197 55.8461 71.0266 56.6517 71.281C57.0543 71.4082 57.3665 71.497 57.5726 71.5528C57.6756 71.5807 57.752 71.6003 57.7999 71.6123C57.8238 71.6183 57.8406 71.6224 57.85 71.6246C57.8547 71.6258 57.8575 71.6264 57.8585 71.6267C57.859 71.6268 57.859 71.6268 57.8585 71.6267C57.8583 71.6266 57.8576 71.6265 57.8575 71.6264C57.8566 71.6262 57.8557 71.626 57.4048 73.5745ZM27.8972 29.5131C29.2575 30.9792 29.2579 30.9788 29.2582 30.9785C29.2581 30.9787 29.2582 30.9786 29.2579 30.9788C29.2573 30.9794 29.256 30.9806 29.254 30.9824C29.25 30.9862 29.2431 30.9926 29.2335 31.0018C29.2141 31.02 29.1836 31.0489 29.1423 31.0883C29.0598 31.1671 28.9345 31.2881 28.7701 31.4501C28.4414 31.7743 27.9569 32.2625 27.3469 32.9064C26.1268 34.1945 24.4068 36.1036 22.4304 38.566C18.4739 43.4954 13.5103 50.6169 9.46618 59.3901C1.39264 76.9047 -2.99883 100.923 11.5317 127.395L8.02519 129.32C-7.27881 101.439 -2.6109 76.0349 5.83354 57.7156C10.0484 48.5719 15.2085 41.1735 19.3109 36.0622C21.364 33.5043 23.1572 31.5129 24.443 30.1556C25.086 29.4768 25.6025 28.9561 25.9617 28.6019C26.1413 28.4248 26.2816 28.2893 26.3787 28.1965C26.4273 28.1501 26.4651 28.1143 26.4916 28.0894C26.5048 28.0769 26.5153 28.0671 26.5229 28.06C26.5266 28.0565 26.5297 28.0536 26.532 28.0514C26.5332 28.0504 26.5344 28.0492 26.535 28.0487C26.536 28.0477 26.5369 28.047 27.8972 29.5131ZM11.5321 127.396C24.5812 151.193 53.9452 164.629 89.4402 171.424L88.6881 175.353C52.9309 168.508 21.9789 154.767 8.02478 129.319L11.5321 127.396ZM87.219 172.617L89.9433 166.104L93.6334 167.648L90.9092 174.16L87.219 172.617Z" fill="black" mask="url(#path-11-inside-4)"/>
<mask id="path-13-inside-5" fill="white">
<path d="M113.842 177.028C136.846 179.502 160.915 179.765 183.547 178.856C212.553 177.674 270.614 170.33 291.92 148.29C291.92 148.29 269.724 148.409 257.446 128.751C257.446 128.751 244.779 165.953 143.152 171.187C133.307 171.705 124.046 171.64 115.427 170.929L113.842 177.028"/>
</mask>
<path d="M183.547 178.856L183.628 180.854L183.627 180.854L183.547 178.856ZM291.92 148.29L291.909 146.29L296.66 146.265L293.358 149.68L291.92 148.29ZM257.446 128.751L255.552 128.106L256.91 124.118L259.142 127.691L257.446 128.751ZM143.152 171.187L143.047 169.19L143.049 169.19L143.152 171.187ZM115.427 170.929L113.491 170.426L113.915 168.797L115.592 168.936L115.427 170.929ZM114.056 175.039C136.934 177.5 160.901 177.764 183.467 176.857L183.627 180.854C160.929 181.766 136.757 181.504 113.628 179.016L114.056 175.039ZM183.466 176.857C197.879 176.27 219.52 174.15 240.177 169.445C260.951 164.713 280.27 157.464 290.482 146.9L293.358 149.68C282.263 161.157 261.9 168.599 241.065 173.345C220.114 178.117 198.222 180.26 183.628 180.854L183.466 176.857ZM291.92 148.29C291.931 150.29 291.93 150.29 291.929 150.29C291.928 150.29 291.927 150.29 291.926 150.29C291.924 150.29 291.922 150.29 291.919 150.29C291.914 150.29 291.908 150.29 291.9 150.29C291.885 150.29 291.864 150.29 291.838 150.29C291.786 150.289 291.713 150.288 291.62 150.286C291.434 150.282 291.169 150.273 290.831 150.254C290.156 150.216 289.191 150.14 288.002 149.985C285.624 149.675 282.332 149.05 278.639 147.785C271.249 145.252 262.195 140.131 255.749 129.81L259.142 127.691C264.974 137.03 273.158 141.678 279.936 144.001C283.326 145.163 286.35 145.736 288.518 146.018C289.601 146.159 290.467 146.227 291.053 146.26C291.346 146.276 291.57 146.284 291.715 146.287C291.788 146.289 291.841 146.29 291.873 146.29C291.89 146.29 291.901 146.29 291.907 146.29C291.91 146.29 291.912 146.29 291.912 146.29C291.912 146.29 291.912 146.29 291.911 146.29C291.911 146.29 291.911 146.29 291.911 146.29C291.91 146.29 291.909 146.29 291.92 148.29ZM257.446 128.751C259.339 129.396 259.338 129.398 259.337 129.401C259.337 129.402 259.336 129.404 259.335 129.406C259.334 129.41 259.332 129.415 259.33 129.42C259.327 129.431 259.322 129.443 259.317 129.458C259.306 129.488 259.292 129.527 259.274 129.574C259.237 129.669 259.186 129.798 259.116 129.959C258.978 130.282 258.768 130.734 258.47 131.297C257.872 132.423 256.918 133.995 255.457 135.873C252.533 139.634 247.598 144.603 239.472 149.7C223.228 159.89 194.292 170.556 143.255 173.185L143.049 169.19C193.639 166.584 221.85 156.032 237.346 146.312C245.09 141.454 249.673 136.796 252.3 133.418C253.614 131.727 254.444 130.351 254.936 129.423C255.182 128.958 255.344 128.606 255.441 128.381C255.489 128.268 255.521 128.188 255.539 128.141C255.548 128.118 255.553 128.104 255.555 128.098C255.557 128.095 255.557 128.094 255.556 128.095C255.556 128.096 255.556 128.097 255.555 128.099C255.555 128.1 255.554 128.102 255.554 128.102C255.553 128.104 255.552 128.106 257.446 128.751ZM143.257 173.185C133.339 173.706 123.987 173.642 115.263 172.922L115.592 168.936C124.105 169.638 133.274 169.704 143.047 169.19L143.257 173.185ZM117.363 171.432L115.777 177.531L111.906 176.524L113.491 170.426L117.363 171.432Z" fill="black" mask="url(#path-13-inside-5)"/>
</g>
<defs>
<clipPath id="clip0">
<rect width="321.58" height="305" fill="white"/>
</clipPath>
</defs>
</svg>
